<?xml version="1.0" encoding="utf-8"?>
<svg version="1.1" xmlns="http://www.w3.org/2000/svg" width="300" height="30" viewBox="0 0 300 30">
<defs>
  <g id="polyline">
    <polyline points="6,18 10,10 14,18 18,10 22,18" fill="none" stroke="#333" stroke-width="2.5" stroke-linecap="round" stroke-linejoin="round"/>
  </g>
  <g id="polygon">
    <polygon points="14,3 25,10 22,24 6,24 3,10" fill="none" stroke="#333" stroke-width="2.5" stroke-linejoin="round"/>
  </g>
  <g id="rectangle">
    <rect x="5" y="5" width="18" height="18" rx="1" fill="none" stroke="#333" stroke-width="2.5"/>
  </g>
  <g id="circle">
    <circle cx="14" cy="14" r="9" fill="none" stroke="#333" stroke-width="2.5"/>
  </g>
  <g id="marker">
    <path d="M14,3 C8,3 4,8 4,13 C4,18 14,27 14,27 C14,27 24,18 24,13 C24,8 20,3 14,3 Z M14,9 A4,4 0 1,1 14,17 A4,4 0 1,1 14,9" fill="none" stroke="#333" stroke-width="2" stroke-linejoin="round"/>
  </g>
  <g id="edit">
    <path d="M3,22 L3,26 L7,26 L22,11 L17,6 Z M20,8 L26,14" fill="none" stroke="#333" stroke-width="2.5" stroke-linecap="round" stroke-linejoin="round"/>
  </g>
  <g id="remove">
    <line x1="5" y1="5" x2="23" y2="23" stroke="#d33" stroke-width="3.5" stroke-linecap="round"/>
    <line x1="23" y1="5" x2="5" y2="23" stroke="#d33" stroke-width="3.5" stroke-linecap="round"/>
  </g>
  <g id="edit-disabled">
    <path d="M3,22 L3,26 L7,26 L22,11 L17,6 Z M20,8 L26,14" fill="none" stroke="#bbb" stroke-width="2.5" stroke-linecap="round" stroke-linejoin="round"/>
  </g>
  <g id="remove-disabled">
    <line x1="5" y1="5" x2="23" y2="23" stroke="#bbb" stroke-width="3.5" stroke-linecap="round"/>
    <line x1="23" y1="5" x2="5" y2="23" stroke="#bbb" stroke-width="3.5" stroke-linecap="round"/>
  </g>
  <g id="circlemarker">
    <circle cx="14" cy="14" r="7" fill="none" stroke="#333" stroke-width="2.5"/>
    <circle cx="14" cy="14" r="3" fill="#333"/>
  </g>
</defs>
  <rect width="300" height="30" fill="#fff"/>
  <use href="#polyline" x="1" y="1"/>
  <use href="#polygon" x="31" y="1"/>
  <use href="#rectangle" x="61" y="1"/>
  <use href="#circle" x="91" y="1"/>
  <use href="#marker" x="121" y="1"/>
  <use href="#edit" x="151" y="1"/>
  <use href="#remove" x="181" y="1"/>
  <use href="#edit-disabled" x="211" y="1"/>
  <use href="#remove-disabled" x="241" y="1"/>
  <use href="#circlemarker" x="271" y="1"/>
</svg>